<svg width="1600" height="312" viewBox="0 0 1600 312" fill="none" xmlns="http://www.w3.org/2000/svg">
<g clip-path="url(#clip0_1913_41)">
<rect x="1600" y="316" width="1600" height="362" transform="rotate(180 1600 316)" fill="url(#paint0_linear_1913_41)"/>
<rect x="1600" y="316" width="1600" height="362" transform="rotate(180 1600 316)" fill="url(#paint1_linear_1913_41)"/>
<path d="M956 0L956 185" stroke="#E4E4F0" stroke-width="4"/>
<path d="M162 179L162 304" stroke="#E4E4F0" stroke-width="4"/>
<path d="M799 32L799 152C799 267.98 704.98 362 589 362L401 362" stroke="#C5C5EE" stroke-width="4"/>
<path d="M1012 173L1012 348" stroke="#E4E4F0" stroke-width="4"/>
<path d="M806 279L1544 279" stroke="#E4E4F0" stroke-width="4"/>
<path d="M1167 -666L1167 313" stroke="#E4E4F0" stroke-width="4"/>
<path d="M392 103.5L392 312" stroke="#E4E4F0" stroke-width="4"/>
<path d="M543 110.5L543 351" stroke="#C5C5EE" stroke-width="4"/>
<path d="M1295 114L1295 312" stroke="#E4E4F0" stroke-width="4"/>
<path d="M162 183.5L162 312.5" stroke="#E4E4F0" stroke-width="4"/>
<path d="M1505 368V368C1505 276.873 1431.13 203 1340 203L1105 203" stroke="#C5C5EE" stroke-width="4"/>
<path d="M657 0L657 310" stroke="#E4E4F0" stroke-width="4"/>
<path d="M241 362L241 311C241 195.021 335.02 101 451 101L799 101" stroke="#C5C5EE" stroke-width="4"/>
<path d="M1012 101L1012 152C1012 267.98 1106.02 362 1222 362L1227 362" stroke="#C5C5EE" stroke-width="4"/>
<rect width="1600" height="176" fill="url(#paint2_linear_1913_41)"/>
<path d="M107 213L956 213" stroke="#C5C5EE" stroke-width="4"/>
<rect x="996" y="83" width="336" height="73" rx="36.5" fill="url(#paint3_linear_1913_41)" stroke="#D090F8" stroke-width="4"/>
<path d="M1031.77 118.909V129H1026.93V111.545H1031.55V114.625H1031.75C1032.14 113.61 1032.78 112.807 1033.69 112.216C1034.6 111.617 1035.7 111.318 1037 111.318C1038.21 111.318 1039.27 111.583 1040.17 112.114C1041.07 112.644 1041.77 113.402 1042.27 114.386C1042.77 115.364 1043.02 116.53 1043.02 117.886V129H1038.18V118.75C1038.19 117.682 1037.92 116.848 1037.36 116.25C1036.81 115.644 1036.05 115.341 1035.08 115.341C1034.43 115.341 1033.85 115.481 1033.35 115.761C1032.86 116.042 1032.47 116.451 1032.19 116.989C1031.92 117.519 1031.78 118.159 1031.77 118.909ZM1054.79 129.341C1053 129.341 1051.45 128.977 1050.16 128.25C1048.87 127.515 1047.88 126.477 1047.18 125.136C1046.48 123.788 1046.13 122.193 1046.13 120.352C1046.13 118.557 1046.48 116.981 1047.18 115.625C1047.88 114.269 1048.86 113.212 1050.12 112.455C1051.39 111.697 1052.89 111.318 1054.6 111.318C1055.75 111.318 1056.82 111.504 1057.82 111.875C1058.82 112.239 1059.69 112.788 1060.43 113.523C1061.18 114.258 1061.76 115.182 1062.18 116.295C1062.6 117.402 1062.8 118.697 1062.8 120.182V121.511H1048.07V118.511H1058.25C1058.25 117.814 1058.1 117.197 1057.79 116.659C1057.49 116.121 1057.07 115.701 1056.53 115.398C1056 115.087 1055.38 114.932 1054.68 114.932C1053.94 114.932 1053.29 115.102 1052.72 115.443C1052.16 115.777 1051.72 116.227 1051.41 116.795C1051.09 117.356 1050.93 117.981 1050.92 118.67V121.523C1050.92 122.386 1051.08 123.133 1051.39 123.761C1051.72 124.39 1052.18 124.875 1052.77 125.216C1053.36 125.557 1054.06 125.727 1054.87 125.727C1055.41 125.727 1055.9 125.652 1056.35 125.5C1056.8 125.348 1057.18 125.121 1057.5 124.818C1057.82 124.515 1058.06 124.144 1058.22 123.705L1062.7 124C1062.47 125.076 1062.01 126.015 1061.3 126.818C1060.61 127.614 1059.71 128.235 1058.6 128.682C1057.5 129.121 1056.23 129.341 1054.79 129.341ZM1069.28 129L1064.53 111.545H1069.43L1072.13 123.273H1072.29L1075.11 111.545H1079.92L1082.78 123.205H1082.93L1085.59 111.545H1090.47L1085.74 129H1080.61L1077.61 118.023H1077.39L1074.39 129H1069.28ZM1108.35 129.341C1106.56 129.341 1105.02 128.962 1103.74 128.205C1102.46 127.439 1101.47 126.379 1100.78 125.023C1100.1 123.667 1099.76 122.106 1099.76 120.341C1099.76 118.553 1100.1 116.985 1100.79 115.636C1101.49 114.28 1102.48 113.223 1103.76 112.466C1105.04 111.701 1106.56 111.318 1108.33 111.318C1109.85 111.318 1111.18 111.595 1112.33 112.148C1113.47 112.701 1114.38 113.477 1115.04 114.477C1115.71 115.477 1116.08 116.652 1116.14 118H1111.58C1111.45 117.129 1111.11 116.428 1110.55 115.898C1110.01 115.36 1109.29 115.091 1108.41 115.091C1107.66 115.091 1107 115.295 1106.44 115.705C1105.89 116.106 1105.46 116.693 1105.14 117.466C1104.83 118.239 1104.68 119.174 1104.68 120.273C1104.68 121.386 1104.83 122.333 1105.13 123.114C1105.44 123.894 1105.88 124.489 1106.44 124.898C1107 125.307 1107.66 125.511 1108.41 125.511C1108.96 125.511 1109.46 125.398 1109.89 125.17C1110.34 124.943 1110.71 124.614 1111 124.182C1111.29 123.742 1111.49 123.216 1111.58 122.602H1116.14C1116.07 123.936 1115.71 125.11 1115.05 126.125C1114.41 127.133 1113.52 127.92 1112.38 128.489C1111.25 129.057 1109.9 129.341 1108.35 129.341ZM1127.13 129.341C1125.37 129.341 1123.84 128.966 1122.55 128.216C1121.27 127.458 1120.28 126.405 1119.59 125.057C1118.89 123.701 1118.54 122.129 1118.54 120.341C1118.54 118.538 1118.89 116.962 1119.59 115.614C1120.28 114.258 1121.27 113.205 1122.55 112.455C1123.84 111.697 1125.37 111.318 1127.13 111.318C1128.9 111.318 1130.42 111.697 1131.7 112.455C1132.99 113.205 1133.98 114.258 1134.68 115.614C1135.37 116.962 1135.72 118.538 1135.72 120.341C1135.72 122.129 1135.37 123.701 1134.68 125.057C1133.98 126.405 1132.99 127.458 1131.7 128.216C1130.42 128.966 1128.9 129.341 1127.13 129.341ZM1127.15 125.591C1127.96 125.591 1128.63 125.364 1129.16 124.909C1129.7 124.447 1130.11 123.818 1130.38 123.023C1130.66 122.227 1130.8 121.322 1130.8 120.307C1130.8 119.292 1130.66 118.386 1130.38 117.591C1130.11 116.795 1129.7 116.167 1129.16 115.705C1128.63 115.242 1127.96 115.011 1127.15 115.011C1126.34 115.011 1125.66 115.242 1125.11 115.705C1124.56 116.167 1124.15 116.795 1123.87 117.591C1123.6 118.386 1123.46 119.292 1123.46 120.307C1123.46 121.322 1123.6 122.227 1123.87 123.023C1124.15 123.818 1124.56 124.447 1125.11 124.909C1125.66 125.364 1126.34 125.591 1127.15 125.591ZM1143.71 118.909V129H1138.87V111.545H1143.48V114.625H1143.69C1144.07 113.61 1144.72 112.807 1145.63 112.216C1146.54 111.617 1147.64 111.318 1148.94 111.318C1150.15 111.318 1151.21 111.583 1152.11 112.114C1153.01 112.644 1153.71 113.402 1154.21 114.386C1154.71 115.364 1154.96 116.53 1154.96 117.886V129H1150.12V118.75C1150.13 117.682 1149.85 116.848 1149.3 116.25C1148.75 115.644 1147.99 115.341 1147.02 115.341C1146.37 115.341 1145.79 115.481 1145.29 115.761C1144.8 116.042 1144.41 116.451 1144.13 116.989C1143.86 117.519 1143.72 118.159 1143.71 118.909ZM1173.3 116.523L1168.87 116.795C1168.79 116.417 1168.63 116.076 1168.38 115.773C1168.13 115.462 1167.8 115.216 1167.39 115.034C1166.99 114.845 1166.51 114.75 1165.95 114.75C1165.2 114.75 1164.56 114.909 1164.05 115.227C1163.53 115.538 1163.28 115.955 1163.28 116.477C1163.28 116.894 1163.44 117.246 1163.78 117.534C1164.11 117.822 1164.68 118.053 1165.49 118.227L1168.65 118.864C1170.35 119.212 1171.61 119.773 1172.45 120.545C1173.28 121.318 1173.7 122.333 1173.7 123.591C1173.7 124.735 1173.36 125.739 1172.68 126.602C1172.02 127.466 1171.1 128.14 1169.93 128.625C1168.78 129.102 1167.44 129.341 1165.92 129.341C1163.61 129.341 1161.77 128.86 1160.4 127.898C1159.04 126.928 1158.24 125.61 1158 123.943L1162.76 123.693C1162.91 124.398 1163.26 124.936 1163.81 125.307C1164.36 125.67 1165.07 125.852 1165.93 125.852C1166.78 125.852 1167.46 125.689 1167.98 125.364C1168.5 125.03 1168.77 124.602 1168.78 124.08C1168.77 123.64 1168.58 123.28 1168.22 123C1167.86 122.712 1167.29 122.492 1166.54 122.341L1163.51 121.739C1161.81 121.398 1160.54 120.807 1159.71 119.966C1158.88 119.125 1158.47 118.053 1158.47 116.75C1158.47 115.629 1158.77 114.663 1159.38 113.852C1159.99 113.042 1160.85 112.417 1161.96 111.977C1163.07 111.538 1164.37 111.318 1165.87 111.318C1168.07 111.318 1169.81 111.784 1171.07 112.716C1172.34 113.648 1173.09 114.917 1173.3 116.523ZM1186.03 111.545V115.182H1175.52V111.545H1186.03ZM1177.9 107.364H1182.74V123.636C1182.74 124.083 1182.81 124.432 1182.95 124.682C1183.09 124.924 1183.27 125.095 1183.52 125.193C1183.77 125.292 1184.05 125.341 1184.38 125.341C1184.61 125.341 1184.84 125.322 1185.06 125.284C1185.29 125.239 1185.46 125.205 1185.59 125.182L1186.35 128.784C1186.1 128.86 1185.76 128.947 1185.32 129.045C1184.88 129.152 1184.35 129.216 1183.72 129.239C1182.55 129.284 1181.53 129.129 1180.65 128.773C1179.78 128.417 1179.1 127.864 1178.62 127.114C1178.13 126.364 1177.9 125.417 1177.9 124.273V107.364ZM1189.18 129V111.545H1193.88V114.591H1194.06C1194.38 113.508 1194.91 112.689 1195.66 112.136C1196.41 111.576 1197.27 111.295 1198.25 111.295C1198.49 111.295 1198.75 111.311 1199.03 111.341C1199.31 111.371 1199.56 111.413 1199.77 111.466V115.761C1199.55 115.693 1199.23 115.633 1198.83 115.58C1198.43 115.527 1198.06 115.5 1197.73 115.5C1197.02 115.5 1196.38 115.655 1195.82 115.966C1195.27 116.269 1194.83 116.693 1194.5 117.239C1194.18 117.784 1194.02 118.413 1194.02 119.125V129H1189.18ZM1213.47 121.568V111.545H1218.31V129H1213.66V125.83H1213.48C1213.09 126.852 1212.43 127.674 1211.51 128.295C1210.61 128.917 1209.5 129.227 1208.18 129.227C1207.02 129.227 1205.99 128.962 1205.11 128.432C1204.22 127.902 1203.53 127.148 1203.03 126.17C1202.53 125.193 1202.28 124.023 1202.28 122.659V111.545H1207.12V121.795C1207.12 122.826 1207.4 123.64 1207.95 124.239C1208.49 124.837 1209.22 125.136 1210.14 125.136C1210.72 125.136 1211.27 125.004 1211.78 124.739C1212.28 124.466 1212.69 124.064 1213 123.534C1213.32 123.004 1213.48 122.348 1213.47 121.568ZM1230.07 129.341C1228.28 129.341 1226.74 128.962 1225.45 128.205C1224.17 127.439 1223.19 126.379 1222.5 125.023C1221.82 123.667 1221.48 122.106 1221.48 120.341C1221.48 118.553 1221.82 116.985 1222.51 115.636C1223.21 114.28 1224.2 113.223 1225.48 112.466C1226.76 111.701 1228.28 111.318 1230.05 111.318C1231.57 111.318 1232.9 111.595 1234.05 112.148C1235.19 112.701 1236.09 113.477 1236.76 114.477C1237.43 115.477 1237.8 116.652 1237.86 118H1233.3C1233.17 117.129 1232.83 116.428 1232.27 115.898C1231.73 115.36 1231.01 115.091 1230.12 115.091C1229.38 115.091 1228.72 115.295 1228.16 115.705C1227.61 116.106 1227.17 116.693 1226.86 117.466C1226.55 118.239 1226.4 119.174 1226.4 120.273C1226.4 121.386 1226.55 122.333 1226.85 123.114C1227.16 123.894 1227.6 124.489 1228.16 124.898C1228.72 125.307 1229.38 125.511 1230.12 125.511C1230.68 125.511 1231.17 125.398 1231.61 125.17C1232.06 124.943 1232.43 124.614 1232.72 124.182C1233.01 123.742 1233.2 123.216 1233.3 122.602H1237.86C1237.79 123.936 1237.42 125.11 1236.77 126.125C1236.13 127.133 1235.24 127.92 1234.1 128.489C1232.97 129.057 1231.62 129.341 1230.07 129.341ZM1250.25 111.545V115.182H1239.74V111.545H1250.25ZM1242.12 107.364H1246.96V123.636C1246.96 124.083 1247.03 124.432 1247.17 124.682C1247.3 124.924 1247.49 125.095 1247.74 125.193C1247.99 125.292 1248.27 125.341 1248.6 125.341C1248.83 125.341 1249.05 125.322 1249.28 125.284C1249.51 125.239 1249.68 125.205 1249.8 125.182L1250.57 128.784C1250.32 128.86 1249.98 128.947 1249.54 129.045C1249.1 129.152 1248.57 129.216 1247.94 129.239C1246.77 129.284 1245.75 129.129 1244.87 128.773C1244 128.417 1243.32 127.864 1242.84 127.114C1242.35 126.364 1242.11 125.417 1242.12 124.273V107.364ZM1253.4 129V111.545H1258.24V129H1253.4ZM1255.83 109.295C1255.11 109.295 1254.5 109.057 1253.98 108.58C1253.47 108.095 1253.22 107.515 1253.22 106.841C1253.22 106.174 1253.47 105.602 1253.98 105.125C1254.5 104.64 1255.11 104.398 1255.83 104.398C1256.55 104.398 1257.17 104.64 1257.67 105.125C1258.19 105.602 1258.45 106.174 1258.45 106.841C1258.45 107.515 1258.19 108.095 1257.67 108.58C1257.17 109.057 1256.55 109.295 1255.83 109.295ZM1270.01 129.341C1268.24 129.341 1266.71 128.966 1265.43 128.216C1264.15 127.458 1263.16 126.405 1262.46 125.057C1261.76 123.701 1261.41 122.129 1261.41 120.341C1261.41 118.538 1261.76 116.962 1262.46 115.614C1263.16 114.258 1264.15 113.205 1265.43 112.455C1266.71 111.697 1268.24 111.318 1270.01 111.318C1271.77 111.318 1273.29 111.697 1274.57 112.455C1275.86 113.205 1276.85 114.258 1277.55 115.614C1278.25 116.962 1278.6 118.538 1278.6 120.341C1278.6 122.129 1278.25 123.701 1277.55 125.057C1276.85 126.405 1275.86 127.458 1274.57 128.216C1273.29 128.966 1271.77 129.341 1270.01 129.341ZM1270.03 125.591C1270.83 125.591 1271.5 125.364 1272.04 124.909C1272.58 124.447 1272.98 123.818 1273.26 123.023C1273.54 122.227 1273.68 121.322 1273.68 120.307C1273.68 119.292 1273.54 118.386 1273.26 117.591C1272.98 116.795 1272.58 116.167 1272.04 115.705C1271.5 115.242 1270.83 115.011 1270.03 115.011C1269.22 115.011 1268.54 115.242 1267.98 115.705C1267.44 116.167 1267.02 116.795 1266.74 117.591C1266.47 118.386 1266.34 119.292 1266.34 120.307C1266.34 121.322 1266.47 122.227 1266.74 123.023C1267.02 123.818 1267.44 124.447 1267.98 124.909C1268.54 125.364 1269.22 125.591 1270.03 125.591ZM1286.59 118.909V129H1281.74V111.545H1286.36V114.625H1286.56C1286.95 113.61 1287.6 112.807 1288.51 112.216C1289.41 111.617 1290.52 111.318 1291.81 111.318C1293.02 111.318 1294.08 111.583 1294.98 112.114C1295.88 112.644 1296.59 113.402 1297.09 114.386C1297.59 115.364 1297.84 116.53 1297.84 117.886V129H1292.99V118.75C1293 117.682 1292.73 116.848 1292.18 116.25C1291.62 115.644 1290.86 115.341 1289.89 115.341C1289.24 115.341 1288.66 115.481 1288.16 115.761C1287.67 116.042 1287.29 116.451 1287.01 116.989C1286.73 117.519 1286.59 118.159 1286.59 118.909Z" fill="#C073DC"/>
<rect x="1254" y="181" width="158" height="73" rx="36.5" fill="url(#paint4_linear_1913_41)" stroke="#D090F8" stroke-width="4"/>
<path d="M1285.02 227V203.727H1289.94V222.943H1299.92V227H1285.02ZM1308.1 203.727V227H1303.18V203.727H1308.1ZM1312.15 227V203.727H1317.07V213.33H1327.06V203.727H1331.97V227H1327.06V217.386H1317.07V227H1312.15ZM1335.14 207.784V203.727H1354.25V207.784H1347.12V227H1342.26V207.784H1335.14ZM1376.87 211.875H1371.89C1371.8 211.231 1371.62 210.659 1371.34 210.159C1371.05 209.652 1370.7 209.22 1370.26 208.864C1369.82 208.508 1369.31 208.235 1368.73 208.045C1368.16 207.856 1367.55 207.761 1366.88 207.761C1365.68 207.761 1364.63 208.061 1363.73 208.659C1362.84 209.25 1362.15 210.114 1361.65 211.25C1361.16 212.379 1360.91 213.75 1360.91 215.364C1360.91 217.023 1361.16 218.417 1361.65 219.545C1362.15 220.674 1362.85 221.527 1363.74 222.102C1364.64 222.678 1365.67 222.966 1366.85 222.966C1367.51 222.966 1368.12 222.879 1368.68 222.705C1369.24 222.53 1369.75 222.277 1370.19 221.943C1370.63 221.602 1370.99 221.189 1371.28 220.705C1371.57 220.22 1371.78 219.667 1371.89 219.045L1376.87 219.068C1376.74 220.136 1376.42 221.167 1375.9 222.159C1375.4 223.144 1374.71 224.027 1373.85 224.807C1372.99 225.58 1371.97 226.193 1370.78 226.648C1369.6 227.095 1368.26 227.318 1366.77 227.318C1364.69 227.318 1362.84 226.848 1361.2 225.909C1359.57 224.97 1358.28 223.61 1357.34 221.83C1356.4 220.049 1355.93 217.894 1355.93 215.364C1355.93 212.826 1356.4 210.667 1357.36 208.886C1358.31 207.106 1359.61 205.75 1361.24 204.818C1362.88 203.879 1364.72 203.409 1366.77 203.409C1368.12 203.409 1369.37 203.598 1370.52 203.977C1371.68 204.356 1372.7 204.909 1373.6 205.636C1374.49 206.356 1375.22 207.239 1375.78 208.284C1376.35 209.33 1376.71 210.527 1376.87 211.875Z" fill="#C073DC"/>
<rect x="341" y="80" width="237" height="73" rx="36.5" fill="url(#paint5_linear_1913_41)" stroke="#9797E0" stroke-width="4"/>
<path d="M390.455 113.523L386.023 113.795C385.947 113.417 385.784 113.076 385.534 112.773C385.284 112.462 384.955 112.216 384.545 112.034C384.144 111.845 383.663 111.75 383.102 111.75C382.352 111.75 381.72 111.909 381.205 112.227C380.689 112.538 380.432 112.955 380.432 113.477C380.432 113.894 380.598 114.246 380.932 114.534C381.265 114.822 381.837 115.053 382.648 115.227L385.807 115.864C387.504 116.212 388.769 116.773 389.602 117.545C390.436 118.318 390.852 119.333 390.852 120.591C390.852 121.735 390.515 122.739 389.841 123.602C389.174 124.466 388.258 125.14 387.091 125.625C385.932 126.102 384.595 126.341 383.08 126.341C380.769 126.341 378.928 125.86 377.557 124.898C376.193 123.928 375.394 122.61 375.159 120.943L379.92 120.693C380.064 121.398 380.413 121.936 380.966 122.307C381.519 122.67 382.227 122.852 383.091 122.852C383.939 122.852 384.621 122.689 385.136 122.364C385.659 122.03 385.924 121.602 385.932 121.08C385.924 120.64 385.739 120.28 385.375 120C385.011 119.712 384.451 119.492 383.693 119.341L380.67 118.739C378.966 118.398 377.697 117.807 376.864 116.966C376.038 116.125 375.625 115.053 375.625 113.75C375.625 112.629 375.928 111.663 376.534 110.852C377.148 110.042 378.008 109.417 379.114 108.977C380.227 108.538 381.53 108.318 383.023 108.318C385.227 108.318 386.962 108.784 388.227 109.716C389.5 110.648 390.242 111.917 390.455 113.523ZM401.787 126.341C400.022 126.341 398.495 125.966 397.207 125.216C395.927 124.458 394.938 123.405 394.241 122.057C393.545 120.701 393.196 119.129 393.196 117.341C393.196 115.538 393.545 113.962 394.241 112.614C394.938 111.258 395.927 110.205 397.207 109.455C398.495 108.697 400.022 108.318 401.787 108.318C403.552 108.318 405.075 108.697 406.355 109.455C407.643 110.205 408.635 111.258 409.332 112.614C410.029 113.962 410.378 115.538 410.378 117.341C410.378 119.129 410.029 120.701 409.332 122.057C408.635 123.405 407.643 124.458 406.355 125.216C405.075 125.966 403.552 126.341 401.787 126.341ZM401.81 122.591C402.613 122.591 403.283 122.364 403.821 121.909C404.359 121.447 404.764 120.818 405.037 120.023C405.317 119.227 405.457 118.322 405.457 117.307C405.457 116.292 405.317 115.386 405.037 114.591C404.764 113.795 404.359 113.167 403.821 112.705C403.283 112.242 402.613 112.011 401.81 112.011C400.999 112.011 400.317 112.242 399.764 112.705C399.219 113.167 398.806 113.795 398.526 114.591C398.253 115.386 398.116 116.292 398.116 117.307C398.116 118.322 398.253 119.227 398.526 120.023C398.806 120.818 399.219 121.447 399.764 121.909C400.317 122.364 400.999 122.591 401.81 122.591ZM418.366 102.727V126H413.526V102.727H418.366ZM427.222 126.33C426.108 126.33 425.116 126.136 424.244 125.75C423.373 125.356 422.684 124.777 422.176 124.011C421.676 123.239 421.426 122.277 421.426 121.125C421.426 120.155 421.604 119.341 421.96 118.682C422.316 118.023 422.801 117.492 423.415 117.091C424.028 116.689 424.725 116.386 425.506 116.182C426.294 115.977 427.119 115.833 427.983 115.75C428.998 115.644 429.816 115.545 430.438 115.455C431.059 115.356 431.509 115.212 431.79 115.023C432.07 114.833 432.21 114.553 432.21 114.182V114.114C432.21 113.394 431.983 112.837 431.528 112.443C431.081 112.049 430.445 111.852 429.619 111.852C428.748 111.852 428.055 112.045 427.54 112.432C427.025 112.811 426.684 113.288 426.517 113.864L422.04 113.5C422.267 112.439 422.714 111.523 423.381 110.75C424.047 109.97 424.907 109.371 425.96 108.955C427.021 108.53 428.248 108.318 429.642 108.318C430.612 108.318 431.54 108.432 432.426 108.659C433.32 108.886 434.112 109.239 434.801 109.716C435.498 110.193 436.047 110.807 436.449 111.557C436.85 112.299 437.051 113.189 437.051 114.227V126H432.46V123.58H432.324C432.044 124.125 431.669 124.606 431.199 125.023C430.729 125.432 430.165 125.754 429.506 125.989C428.847 126.216 428.085 126.33 427.222 126.33ZM428.608 122.989C429.32 122.989 429.949 122.848 430.494 122.568C431.04 122.28 431.468 121.894 431.778 121.409C432.089 120.924 432.244 120.375 432.244 119.761V117.909C432.093 118.008 431.884 118.098 431.619 118.182C431.362 118.258 431.07 118.33 430.744 118.398C430.419 118.458 430.093 118.515 429.767 118.568C429.441 118.614 429.146 118.655 428.881 118.693C428.313 118.777 427.816 118.909 427.392 119.091C426.968 119.273 426.638 119.519 426.403 119.83C426.169 120.133 426.051 120.511 426.051 120.966C426.051 121.625 426.29 122.129 426.767 122.477C427.252 122.818 427.866 122.989 428.608 122.989ZM440.807 126V108.545H445.5V111.591H445.682C446 110.508 446.534 109.689 447.284 109.136C448.034 108.576 448.898 108.295 449.875 108.295C450.117 108.295 450.379 108.311 450.659 108.341C450.939 108.371 451.186 108.413 451.398 108.466V112.761C451.17 112.693 450.856 112.633 450.455 112.58C450.053 112.527 449.686 112.5 449.352 112.5C448.64 112.5 448.004 112.655 447.443 112.966C446.89 113.269 446.451 113.693 446.125 114.239C445.807 114.784 445.648 115.413 445.648 116.125V126H440.807ZM470.693 108.545V112.182H459.92V108.545H470.693ZM462.386 126V107.284C462.386 106.019 462.633 104.97 463.125 104.136C463.625 103.303 464.307 102.678 465.17 102.261C466.034 101.845 467.015 101.636 468.114 101.636C468.856 101.636 469.534 101.693 470.148 101.807C470.769 101.92 471.231 102.023 471.534 102.114L470.67 105.75C470.481 105.689 470.246 105.633 469.966 105.58C469.693 105.527 469.413 105.5 469.125 105.5C468.413 105.5 467.917 105.667 467.636 106C467.356 106.326 467.216 106.784 467.216 107.375V126H462.386ZM484.844 118.568V108.545H489.685V126H485.037V122.83H484.855C484.461 123.852 483.806 124.674 482.889 125.295C481.98 125.917 480.87 126.227 479.56 126.227C478.393 126.227 477.366 125.962 476.48 125.432C475.594 124.902 474.901 124.148 474.401 123.17C473.908 122.193 473.658 121.023 473.651 119.659V108.545H478.491V118.795C478.499 119.826 478.776 120.64 479.321 121.239C479.866 121.837 480.598 122.136 481.514 122.136C482.098 122.136 482.643 122.004 483.151 121.739C483.658 121.466 484.067 121.064 484.378 120.534C484.696 120.004 484.851 119.348 484.844 118.568ZM498.398 115.909V126H493.557V108.545H498.17V111.625H498.375C498.761 110.61 499.409 109.807 500.318 109.216C501.227 108.617 502.33 108.318 503.625 108.318C504.837 108.318 505.894 108.583 506.795 109.114C507.697 109.644 508.398 110.402 508.898 111.386C509.398 112.364 509.648 113.53 509.648 114.886V126H504.807V115.75C504.814 114.682 504.542 113.848 503.989 113.25C503.436 112.644 502.674 112.341 501.705 112.341C501.053 112.341 500.477 112.481 499.977 112.761C499.485 113.042 499.098 113.451 498.818 113.989C498.545 114.519 498.405 115.159 498.398 115.909ZM519.895 126.284C518.569 126.284 517.368 125.943 516.293 125.261C515.224 124.572 514.376 123.561 513.747 122.227C513.126 120.886 512.815 119.242 512.815 117.295C512.815 115.295 513.137 113.633 513.781 112.307C514.425 110.973 515.281 109.977 516.349 109.318C517.425 108.652 518.603 108.318 519.884 108.318C520.861 108.318 521.675 108.485 522.327 108.818C522.986 109.144 523.516 109.553 523.918 110.045C524.327 110.53 524.637 111.008 524.849 111.477H524.997V102.727H529.827V126H525.054V123.205H524.849C524.622 123.689 524.3 124.17 523.884 124.648C523.474 125.117 522.94 125.508 522.281 125.818C521.63 126.129 520.834 126.284 519.895 126.284ZM521.429 122.432C522.209 122.432 522.868 122.22 523.406 121.795C523.952 121.364 524.368 120.761 524.656 119.989C524.952 119.216 525.099 118.311 525.099 117.273C525.099 116.235 524.955 115.333 524.668 114.568C524.38 113.803 523.963 113.212 523.418 112.795C522.872 112.379 522.209 112.17 521.429 112.17C520.634 112.17 519.963 112.386 519.418 112.818C518.872 113.25 518.459 113.848 518.179 114.614C517.899 115.379 517.759 116.265 517.759 117.273C517.759 118.288 517.899 119.186 518.179 119.966C518.467 120.739 518.88 121.345 519.418 121.784C519.963 122.216 520.634 122.432 521.429 122.432ZM548.33 113.523L543.898 113.795C543.822 113.417 543.659 113.076 543.409 112.773C543.159 112.462 542.83 112.216 542.42 112.034C542.019 111.845 541.538 111.75 540.977 111.75C540.227 111.75 539.595 111.909 539.08 112.227C538.564 112.538 538.307 112.955 538.307 113.477C538.307 113.894 538.473 114.246 538.807 114.534C539.14 114.822 539.712 115.053 540.523 115.227L543.682 115.864C545.379 116.212 546.644 116.773 547.477 117.545C548.311 118.318 548.727 119.333 548.727 120.591C548.727 121.735 548.39 122.739 547.716 123.602C547.049 124.466 546.133 125.14 544.966 125.625C543.807 126.102 542.47 126.341 540.955 126.341C538.644 126.341 536.803 125.86 535.432 124.898C534.068 123.928 533.269 122.61 533.034 120.943L537.795 120.693C537.939 121.398 538.288 121.936 538.841 122.307C539.394 122.67 540.102 122.852 540.966 122.852C541.814 122.852 542.496 122.689 543.011 122.364C543.534 122.03 543.799 121.602 543.807 121.08C543.799 120.64 543.614 120.28 543.25 120C542.886 119.712 542.326 119.492 541.568 119.341L538.545 118.739C536.841 118.398 535.572 117.807 534.739 116.966C533.913 116.125 533.5 115.053 533.5 113.75C533.5 112.629 533.803 111.663 534.409 110.852C535.023 110.042 535.883 109.417 536.989 108.977C538.102 108.538 539.405 108.318 540.898 108.318C543.102 108.318 544.837 108.784 546.102 109.716C547.375 110.648 548.117 111.917 548.33 113.523Z" fill="#9797E0"/>
<rect x="581" y="174" width="302" height="73" rx="36.5" fill="url(#paint6_linear_1913_41)" stroke="#D090F8" stroke-width="4"/>
<path d="M619.886 220.341C618.091 220.341 616.545 219.977 615.25 219.25C613.962 218.515 612.97 217.477 612.273 216.136C611.576 214.788 611.227 213.193 611.227 211.352C611.227 209.557 611.576 207.981 612.273 206.625C612.97 205.269 613.951 204.212 615.216 203.455C616.489 202.697 617.981 202.318 619.693 202.318C620.845 202.318 621.917 202.504 622.909 202.875C623.909 203.239 624.78 203.788 625.523 204.523C626.273 205.258 626.856 206.182 627.273 207.295C627.689 208.402 627.898 209.697 627.898 211.182V212.511H613.159V209.511H623.341C623.341 208.814 623.189 208.197 622.886 207.659C622.583 207.121 622.163 206.701 621.625 206.398C621.095 206.087 620.477 205.932 619.773 205.932C619.038 205.932 618.386 206.102 617.818 206.443C617.258 206.777 616.818 207.227 616.5 207.795C616.182 208.356 616.019 208.981 616.011 209.67V212.523C616.011 213.386 616.17 214.133 616.489 214.761C616.814 215.39 617.273 215.875 617.864 216.216C618.455 216.557 619.155 216.727 619.966 216.727C620.504 216.727 620.996 216.652 621.443 216.5C621.89 216.348 622.273 216.121 622.591 215.818C622.909 215.515 623.152 215.144 623.318 214.705L627.795 215C627.568 216.076 627.102 217.015 626.398 217.818C625.701 218.614 624.799 219.235 623.693 219.682C622.595 220.121 621.326 220.341 619.886 220.341ZM635.898 209.909V220H631.057V202.545H635.67V205.625H635.875C636.261 204.61 636.909 203.807 637.818 203.216C638.727 202.617 639.83 202.318 641.125 202.318C642.337 202.318 643.394 202.583 644.295 203.114C645.197 203.644 645.898 204.402 646.398 205.386C646.898 206.364 647.148 207.53 647.148 208.886V220H642.307V209.75C642.314 208.682 642.042 207.848 641.489 207.25C640.936 206.644 640.174 206.341 639.205 206.341C638.553 206.341 637.977 206.481 637.477 206.761C636.985 207.042 636.598 207.451 636.318 207.989C636.045 208.519 635.905 209.159 635.898 209.909ZM658.918 220.341C657.122 220.341 655.577 219.977 654.281 219.25C652.993 218.515 652.001 217.477 651.304 216.136C650.607 214.788 650.259 213.193 650.259 211.352C650.259 209.557 650.607 207.981 651.304 206.625C652.001 205.269 652.982 204.212 654.247 203.455C655.52 202.697 657.012 202.318 658.724 202.318C659.876 202.318 660.948 202.504 661.94 202.875C662.94 203.239 663.812 203.788 664.554 204.523C665.304 205.258 665.887 206.182 666.304 207.295C666.721 208.402 666.929 209.697 666.929 211.182V212.511H652.19V209.511H662.372C662.372 208.814 662.221 208.197 661.918 207.659C661.615 207.121 661.194 206.701 660.656 206.398C660.126 206.087 659.509 205.932 658.804 205.932C658.069 205.932 657.418 206.102 656.849 206.443C656.289 206.777 655.849 207.227 655.531 207.795C655.213 208.356 655.05 208.981 655.043 209.67V212.523C655.043 213.386 655.202 214.133 655.52 214.761C655.846 215.39 656.304 215.875 656.895 216.216C657.486 216.557 658.187 216.727 658.997 216.727C659.535 216.727 660.027 216.652 660.474 216.5C660.921 216.348 661.304 216.121 661.622 215.818C661.94 215.515 662.183 215.144 662.349 214.705L666.827 215C666.599 216.076 666.134 217.015 665.429 217.818C664.732 218.614 663.83 219.235 662.724 219.682C661.626 220.121 660.357 220.341 658.918 220.341ZM670.088 220V202.545H674.781V205.591H674.963C675.281 204.508 675.815 203.689 676.565 203.136C677.315 202.576 678.179 202.295 679.156 202.295C679.399 202.295 679.66 202.311 679.94 202.341C680.221 202.371 680.467 202.413 680.679 202.466V206.761C680.452 206.693 680.137 206.633 679.736 206.58C679.334 206.527 678.967 206.5 678.634 206.5C677.921 206.5 677.285 206.655 676.724 206.966C676.171 207.269 675.732 207.693 675.406 208.239C675.088 208.784 674.929 209.413 674.929 210.125V220H670.088ZM690.233 226.909C688.665 226.909 687.32 226.693 686.199 226.261C685.085 225.837 684.199 225.258 683.54 224.523C682.881 223.788 682.453 222.962 682.256 222.045L686.733 221.443C686.869 221.792 687.085 222.117 687.381 222.42C687.676 222.723 688.066 222.966 688.551 223.148C689.044 223.337 689.642 223.432 690.347 223.432C691.4 223.432 692.267 223.174 692.949 222.659C693.638 222.152 693.983 221.299 693.983 220.102V216.909H693.778C693.566 217.394 693.248 217.852 692.824 218.284C692.4 218.716 691.854 219.068 691.188 219.341C690.521 219.614 689.725 219.75 688.801 219.75C687.491 219.75 686.297 219.447 685.222 218.841C684.153 218.227 683.301 217.292 682.665 216.034C682.036 214.769 681.722 213.17 681.722 211.239C681.722 209.261 682.044 207.61 682.688 206.284C683.331 204.958 684.188 203.966 685.256 203.307C686.331 202.648 687.509 202.318 688.79 202.318C689.767 202.318 690.585 202.485 691.244 202.818C691.903 203.144 692.434 203.553 692.835 204.045C693.244 204.53 693.559 205.008 693.778 205.477H693.96V202.545H698.767V220.17C698.767 221.655 698.403 222.898 697.676 223.898C696.949 224.898 695.941 225.648 694.653 226.148C693.373 226.655 691.9 226.909 690.233 226.909ZM690.335 216.114C691.116 216.114 691.775 215.92 692.312 215.534C692.858 215.14 693.275 214.58 693.562 213.852C693.858 213.117 694.006 212.239 694.006 211.216C694.006 210.193 693.862 209.307 693.574 208.557C693.286 207.799 692.869 207.212 692.324 206.795C691.778 206.379 691.116 206.17 690.335 206.17C689.54 206.17 688.869 206.386 688.324 206.818C687.778 207.242 687.366 207.833 687.085 208.591C686.805 209.348 686.665 210.223 686.665 211.216C686.665 212.223 686.805 213.095 687.085 213.83C687.373 214.557 687.786 215.121 688.324 215.523C688.869 215.917 689.54 216.114 690.335 216.114ZM705.608 226.545C704.994 226.545 704.419 226.496 703.881 226.398C703.35 226.307 702.911 226.189 702.562 226.045L703.653 222.432C704.222 222.606 704.733 222.701 705.188 222.716C705.65 222.731 706.047 222.625 706.381 222.398C706.722 222.17 706.998 221.784 707.21 221.239L707.494 220.5L701.233 202.545H706.324L709.938 215.364H710.119L713.767 202.545H718.892L712.108 221.886C711.782 222.826 711.339 223.644 710.778 224.341C710.225 225.045 709.525 225.587 708.676 225.966C707.828 226.352 706.805 226.545 705.608 226.545ZM728.776 220V202.545H733.469V205.591H733.651C733.969 204.508 734.503 203.689 735.253 203.136C736.003 202.576 736.866 202.295 737.844 202.295C738.086 202.295 738.348 202.311 738.628 202.341C738.908 202.371 739.154 202.413 739.366 202.466V206.761C739.139 206.693 738.825 206.633 738.423 206.58C738.022 206.527 737.654 206.5 737.321 206.5C736.609 206.5 735.973 206.655 735.412 206.966C734.859 207.269 734.42 207.693 734.094 208.239C733.776 208.784 733.616 209.413 733.616 210.125V220H728.776ZM749.011 220.341C747.216 220.341 745.67 219.977 744.375 219.25C743.087 218.515 742.095 217.477 741.398 216.136C740.701 214.788 740.352 213.193 740.352 211.352C740.352 209.557 740.701 207.981 741.398 206.625C742.095 205.269 743.076 204.212 744.341 203.455C745.614 202.697 747.106 202.318 748.818 202.318C749.97 202.318 751.042 202.504 752.034 202.875C753.034 203.239 753.905 203.788 754.648 204.523C755.398 205.258 755.981 206.182 756.398 207.295C756.814 208.402 757.023 209.697 757.023 211.182V212.511H742.284V209.511H752.466C752.466 208.814 752.314 208.197 752.011 207.659C751.708 207.121 751.288 206.701 750.75 206.398C750.22 206.087 749.602 205.932 748.898 205.932C748.163 205.932 747.511 206.102 746.943 206.443C746.383 206.777 745.943 207.227 745.625 207.795C745.307 208.356 745.144 208.981 745.136 209.67V212.523C745.136 213.386 745.295 214.133 745.614 214.761C745.939 215.39 746.398 215.875 746.989 216.216C747.58 216.557 748.28 216.727 749.091 216.727C749.629 216.727 750.121 216.652 750.568 216.5C751.015 216.348 751.398 216.121 751.716 215.818C752.034 215.515 752.277 215.144 752.443 214.705L756.92 215C756.693 216.076 756.227 217.015 755.523 217.818C754.826 218.614 753.924 219.235 752.818 219.682C751.72 220.121 750.451 220.341 749.011 220.341ZM769.466 202.545V206.182H758.955V202.545H769.466ZM761.341 198.364H766.182V214.636C766.182 215.083 766.25 215.432 766.386 215.682C766.523 215.924 766.712 216.095 766.955 216.193C767.205 216.292 767.492 216.341 767.818 216.341C768.045 216.341 768.273 216.322 768.5 216.284C768.727 216.239 768.902 216.205 769.023 216.182L769.784 219.784C769.542 219.86 769.201 219.947 768.761 220.045C768.322 220.152 767.788 220.216 767.159 220.239C765.992 220.284 764.97 220.129 764.091 219.773C763.22 219.417 762.542 218.864 762.057 218.114C761.572 217.364 761.333 216.417 761.341 215.273V198.364ZM772.619 220V202.545H777.312V205.591H777.494C777.813 204.508 778.347 203.689 779.097 203.136C779.847 202.576 780.71 202.295 781.688 202.295C781.93 202.295 782.191 202.311 782.472 202.341C782.752 202.371 782.998 202.413 783.21 202.466V206.761C782.983 206.693 782.669 206.633 782.267 206.58C781.866 206.527 781.498 206.5 781.165 206.5C780.453 206.5 779.816 206.655 779.256 206.966C778.703 207.269 778.263 207.693 777.938 208.239C777.619 208.784 777.46 209.413 777.46 210.125V220H772.619ZM792.787 220.341C791.022 220.341 789.495 219.966 788.207 219.216C786.927 218.458 785.938 217.405 785.241 216.057C784.545 214.701 784.196 213.129 784.196 211.341C784.196 209.538 784.545 207.962 785.241 206.614C785.938 205.258 786.927 204.205 788.207 203.455C789.495 202.697 791.022 202.318 792.787 202.318C794.552 202.318 796.075 202.697 797.355 203.455C798.643 204.205 799.635 205.258 800.332 206.614C801.029 207.962 801.378 209.538 801.378 211.341C801.378 213.129 801.029 214.701 800.332 216.057C799.635 217.405 798.643 218.458 797.355 219.216C796.075 219.966 794.552 220.341 792.787 220.341ZM792.81 216.591C793.613 216.591 794.283 216.364 794.821 215.909C795.359 215.447 795.764 214.818 796.037 214.023C796.317 213.227 796.457 212.322 796.457 211.307C796.457 210.292 796.317 209.386 796.037 208.591C795.764 207.795 795.359 207.167 794.821 206.705C794.283 206.242 793.613 206.011 792.81 206.011C791.999 206.011 791.317 206.242 790.764 206.705C790.219 207.167 789.806 207.795 789.526 208.591C789.253 209.386 789.116 210.292 789.116 211.307C789.116 212.322 789.253 213.227 789.526 214.023C789.806 214.818 790.219 215.447 790.764 215.909C791.317 216.364 791.999 216.591 792.81 216.591ZM813.912 202.545V206.182H803.139V202.545H813.912ZM805.605 220V201.284C805.605 200.019 805.851 198.97 806.344 198.136C806.844 197.303 807.526 196.678 808.389 196.261C809.253 195.845 810.234 195.636 811.332 195.636C812.075 195.636 812.753 195.693 813.366 195.807C813.988 195.92 814.45 196.023 814.753 196.114L813.889 199.75C813.7 199.689 813.465 199.633 813.185 199.58C812.912 199.527 812.632 199.5 812.344 199.5C811.632 199.5 811.135 199.667 810.855 200C810.575 200.326 810.435 200.784 810.435 201.375V220H805.605ZM816.869 220V202.545H821.71V220H816.869ZM819.301 200.295C818.581 200.295 817.964 200.057 817.449 199.58C816.941 199.095 816.688 198.515 816.688 197.841C816.688 197.174 816.941 196.602 817.449 196.125C817.964 195.64 818.581 195.398 819.301 195.398C820.021 195.398 820.634 195.64 821.142 196.125C821.657 196.602 821.915 197.174 821.915 197.841C821.915 198.515 821.657 199.095 821.142 199.58C820.634 200.057 820.021 200.295 819.301 200.295ZM834.872 202.545V206.182H824.361V202.545H834.872ZM826.747 198.364H831.588V214.636C831.588 215.083 831.656 215.432 831.793 215.682C831.929 215.924 832.118 216.095 832.361 216.193C832.611 216.292 832.899 216.341 833.224 216.341C833.452 216.341 833.679 216.322 833.906 216.284C834.134 216.239 834.308 216.205 834.429 216.182L835.19 219.784C834.948 219.86 834.607 219.947 834.168 220.045C833.728 220.152 833.194 220.216 832.565 220.239C831.399 220.284 830.376 220.129 829.497 219.773C828.626 219.417 827.948 218.864 827.463 218.114C826.978 217.364 826.74 216.417 826.747 215.273V198.364ZM852.33 207.523L847.898 207.795C847.822 207.417 847.659 207.076 847.409 206.773C847.159 206.462 846.83 206.216 846.42 206.034C846.019 205.845 845.538 205.75 844.977 205.75C844.227 205.75 843.595 205.909 843.08 206.227C842.564 206.538 842.307 206.955 842.307 207.477C842.307 207.894 842.473 208.246 842.807 208.534C843.14 208.822 843.712 209.053 844.523 209.227L847.682 209.864C849.379 210.212 850.644 210.773 851.477 211.545C852.311 212.318 852.727 213.333 852.727 214.591C852.727 215.735 852.39 216.739 851.716 217.602C851.049 218.466 850.133 219.14 848.966 219.625C847.807 220.102 846.47 220.341 844.955 220.341C842.644 220.341 840.803 219.86 839.432 218.898C838.068 217.928 837.269 216.61 837.034 214.943L841.795 214.693C841.939 215.398 842.288 215.936 842.841 216.307C843.394 216.67 844.102 216.852 844.966 216.852C845.814 216.852 846.496 216.689 847.011 216.364C847.534 216.03 847.799 215.602 847.807 215.08C847.799 214.64 847.614 214.28 847.25 214C846.886 213.712 846.326 213.492 845.568 213.341L842.545 212.739C840.841 212.398 839.572 211.807 838.739 210.966C837.913 210.125 837.5 209.053 837.5 207.75C837.5 206.629 837.803 205.663 838.409 204.852C839.023 204.042 839.883 203.417 840.989 202.977C842.102 202.538 843.405 202.318 844.898 202.318C847.102 202.318 848.837 202.784 850.102 203.716C851.375 204.648 852.117 205.917 852.33 207.523Z" fill="#D997F0"/>
<rect x="916" y="188" width="285" height="73" rx="36.5" fill="url(#paint7_linear_1913_41)" stroke="#C5C5EE" stroke-width="4"/>
<path d="M951.773 223.909V234H946.932V210.727H951.636V219.625H951.841C952.235 218.595 952.871 217.788 953.75 217.205C954.629 216.614 955.731 216.318 957.057 216.318C958.269 216.318 959.326 216.583 960.227 217.114C961.136 217.636 961.841 218.39 962.341 219.375C962.848 220.352 963.098 221.523 963.091 222.886V234H958.25V223.75C958.258 222.674 957.985 221.837 957.432 221.239C956.886 220.64 956.121 220.341 955.136 220.341C954.477 220.341 953.894 220.481 953.386 220.761C952.886 221.042 952.492 221.451 952.205 221.989C951.924 222.519 951.78 223.159 951.773 223.909ZM974.787 234.341C973.022 234.341 971.495 233.966 970.207 233.216C968.927 232.458 967.938 231.405 967.241 230.057C966.545 228.701 966.196 227.129 966.196 225.341C966.196 223.538 966.545 221.962 967.241 220.614C967.938 219.258 968.927 218.205 970.207 217.455C971.495 216.697 973.022 216.318 974.787 216.318C976.552 216.318 978.075 216.697 979.355 217.455C980.643 218.205 981.635 219.258 982.332 220.614C983.029 221.962 983.378 223.538 983.378 225.341C983.378 227.129 983.029 228.701 982.332 230.057C981.635 231.405 980.643 232.458 979.355 233.216C978.075 233.966 976.552 234.341 974.787 234.341ZM974.81 230.591C975.613 230.591 976.283 230.364 976.821 229.909C977.359 229.447 977.764 228.818 978.037 228.023C978.317 227.227 978.457 226.322 978.457 225.307C978.457 224.292 978.317 223.386 978.037 222.591C977.764 221.795 977.359 221.167 976.821 220.705C976.283 220.242 975.613 220.011 974.81 220.011C973.999 220.011 973.317 220.242 972.764 220.705C972.219 221.167 971.806 221.795 971.526 222.591C971.253 223.386 971.116 224.292 971.116 225.307C971.116 226.322 971.253 227.227 971.526 228.023C971.806 228.818 972.219 229.447 972.764 229.909C973.317 230.364 973.999 230.591 974.81 230.591ZM997.719 226.568V216.545H1002.56V234H997.912V230.83H997.73C997.336 231.852 996.681 232.674 995.764 233.295C994.855 233.917 993.745 234.227 992.435 234.227C991.268 234.227 990.241 233.962 989.355 233.432C988.469 232.902 987.776 232.148 987.276 231.17C986.783 230.193 986.533 229.023 986.526 227.659V216.545H991.366V226.795C991.374 227.826 991.651 228.64 992.196 229.239C992.741 229.837 993.473 230.136 994.389 230.136C994.973 230.136 995.518 230.004 996.026 229.739C996.533 229.466 996.942 229.064 997.253 228.534C997.571 228.004 997.726 227.348 997.719 226.568ZM1020.95 221.523L1016.52 221.795C1016.45 221.417 1016.28 221.076 1016.03 220.773C1015.78 220.462 1015.45 220.216 1015.05 220.034C1014.64 219.845 1014.16 219.75 1013.6 219.75C1012.85 219.75 1012.22 219.909 1011.7 220.227C1011.19 220.538 1010.93 220.955 1010.93 221.477C1010.93 221.894 1011.1 222.246 1011.43 222.534C1011.77 222.822 1012.34 223.053 1013.15 223.227L1016.31 223.864C1018 224.212 1019.27 224.773 1020.1 225.545C1020.94 226.318 1021.35 227.333 1021.35 228.591C1021.35 229.735 1021.02 230.739 1020.34 231.602C1019.67 232.466 1018.76 233.14 1017.59 233.625C1016.43 234.102 1015.09 234.341 1013.58 234.341C1011.27 234.341 1009.43 233.86 1008.06 232.898C1006.69 231.928 1005.89 230.61 1005.66 228.943L1010.42 228.693C1010.56 229.398 1010.91 229.936 1011.47 230.307C1012.02 230.67 1012.73 230.852 1013.59 230.852C1014.44 230.852 1015.12 230.689 1015.64 230.364C1016.16 230.03 1016.42 229.602 1016.43 229.08C1016.42 228.64 1016.24 228.28 1015.88 228C1015.51 227.712 1014.95 227.492 1014.19 227.341L1011.17 226.739C1009.47 226.398 1008.2 225.807 1007.36 224.966C1006.54 224.125 1006.12 223.053 1006.12 221.75C1006.12 220.629 1006.43 219.663 1007.03 218.852C1007.65 218.042 1008.51 217.417 1009.61 216.977C1010.73 216.538 1012.03 216.318 1013.52 216.318C1015.73 216.318 1017.46 216.784 1018.73 217.716C1020 218.648 1020.74 219.917 1020.95 221.523ZM1024.4 234V216.545H1029.24V234H1024.4ZM1026.83 214.295C1026.11 214.295 1025.5 214.057 1024.98 213.58C1024.47 213.095 1024.22 212.515 1024.22 211.841C1024.22 211.174 1024.47 210.602 1024.98 210.125C1025.5 209.64 1026.11 209.398 1026.83 209.398C1027.55 209.398 1028.17 209.64 1028.67 210.125C1029.19 210.602 1029.45 211.174 1029.45 211.841C1029.45 212.515 1029.19 213.095 1028.67 213.58C1028.17 214.057 1027.55 214.295 1026.83 214.295ZM1037.96 223.909V234H1033.12V216.545H1037.73V219.625H1037.94C1038.32 218.61 1038.97 217.807 1039.88 217.216C1040.79 216.617 1041.89 216.318 1043.19 216.318C1044.4 216.318 1045.46 216.583 1046.36 217.114C1047.26 217.644 1047.96 218.402 1048.46 219.386C1048.96 220.364 1049.21 221.53 1049.21 222.886V234H1044.37V223.75C1044.38 222.682 1044.1 221.848 1043.55 221.25C1043 220.644 1042.24 220.341 1041.27 220.341C1040.62 220.341 1040.04 220.481 1039.54 220.761C1039.05 221.042 1038.66 221.451 1038.38 221.989C1038.11 222.519 1037.97 223.159 1037.96 223.909ZM1060.89 240.909C1059.32 240.909 1057.98 240.693 1056.86 240.261C1055.74 239.837 1054.86 239.258 1054.2 238.523C1053.54 237.788 1053.11 236.962 1052.91 236.045L1057.39 235.443C1057.53 235.792 1057.74 236.117 1058.04 236.42C1058.33 236.723 1058.72 236.966 1059.21 237.148C1059.7 237.337 1060.3 237.432 1061 237.432C1062.06 237.432 1062.92 237.174 1063.61 236.659C1064.29 236.152 1064.64 235.299 1064.64 234.102V230.909H1064.43C1064.22 231.394 1063.9 231.852 1063.48 232.284C1063.06 232.716 1062.51 233.068 1061.84 233.341C1061.18 233.614 1060.38 233.75 1059.46 233.75C1058.15 233.75 1056.95 233.447 1055.88 232.841C1054.81 232.227 1053.96 231.292 1053.32 230.034C1052.69 228.769 1052.38 227.17 1052.38 225.239C1052.38 223.261 1052.7 221.61 1053.34 220.284C1053.99 218.958 1054.84 217.966 1055.91 217.307C1056.99 216.648 1058.17 216.318 1059.45 216.318C1060.42 216.318 1061.24 216.485 1061.9 216.818C1062.56 217.144 1063.09 217.553 1063.49 218.045C1063.9 218.53 1064.21 219.008 1064.43 219.477H1064.62V216.545H1069.42V234.17C1069.42 235.655 1069.06 236.898 1068.33 237.898C1067.61 238.898 1066.6 239.648 1065.31 240.148C1064.03 240.655 1062.56 240.909 1060.89 240.909ZM1060.99 230.114C1061.77 230.114 1062.43 229.92 1062.97 229.534C1063.51 229.14 1063.93 228.58 1064.22 227.852C1064.51 227.117 1064.66 226.239 1064.66 225.216C1064.66 224.193 1064.52 223.307 1064.23 222.557C1063.94 221.799 1063.53 221.212 1062.98 220.795C1062.43 220.379 1061.77 220.17 1060.99 220.17C1060.2 220.17 1059.53 220.386 1058.98 220.818C1058.43 221.242 1058.02 221.833 1057.74 222.591C1057.46 223.348 1057.32 224.223 1057.32 225.216C1057.32 226.223 1057.46 227.095 1057.74 227.83C1058.03 228.557 1058.44 229.121 1058.98 229.523C1059.53 229.917 1060.2 230.114 1060.99 230.114ZM1080.68 234V216.545H1085.38V219.591H1085.56C1085.88 218.508 1086.41 217.689 1087.16 217.136C1087.91 216.576 1088.77 216.295 1089.75 216.295C1089.99 216.295 1090.25 216.311 1090.53 216.341C1090.81 216.371 1091.06 216.413 1091.27 216.466V220.761C1091.05 220.693 1090.73 220.633 1090.33 220.58C1089.93 220.527 1089.56 220.5 1089.23 220.5C1088.52 220.5 1087.88 220.655 1087.32 220.966C1086.77 221.269 1086.33 221.693 1086 222.239C1085.68 222.784 1085.52 223.413 1085.52 224.125V234H1080.68ZM1100.92 234.341C1099.12 234.341 1097.58 233.977 1096.28 233.25C1094.99 232.515 1094 231.477 1093.3 230.136C1092.61 228.788 1092.26 227.193 1092.26 225.352C1092.26 223.557 1092.61 221.981 1093.3 220.625C1094 219.269 1094.98 218.212 1096.25 217.455C1097.52 216.697 1099.01 216.318 1100.72 216.318C1101.88 216.318 1102.95 216.504 1103.94 216.875C1104.94 217.239 1105.81 217.788 1106.55 218.523C1107.3 219.258 1107.89 220.182 1108.3 221.295C1108.72 222.402 1108.93 223.697 1108.93 225.182V226.511H1094.19V223.511H1104.37C1104.37 222.814 1104.22 222.197 1103.92 221.659C1103.61 221.121 1103.19 220.701 1102.66 220.398C1102.13 220.087 1101.51 219.932 1100.8 219.932C1100.07 219.932 1099.42 220.102 1098.85 220.443C1098.29 220.777 1097.85 221.227 1097.53 221.795C1097.21 222.356 1097.05 222.981 1097.04 223.67V226.523C1097.04 227.386 1097.2 228.133 1097.52 228.761C1097.85 229.39 1098.3 229.875 1098.89 230.216C1099.49 230.557 1100.19 230.727 1101 230.727C1101.54 230.727 1102.03 230.652 1102.47 230.5C1102.92 230.348 1103.3 230.121 1103.62 229.818C1103.94 229.515 1104.18 229.144 1104.35 228.705L1108.83 229C1108.6 230.076 1108.13 231.015 1107.43 231.818C1106.73 232.614 1105.83 233.235 1104.72 233.682C1103.63 234.121 1102.36 234.341 1100.92 234.341ZM1116.93 223.909V234H1112.09V210.727H1116.79V219.625H1117C1117.39 218.595 1118.03 217.788 1118.91 217.205C1119.79 216.614 1120.89 216.318 1122.21 216.318C1123.43 216.318 1124.48 216.583 1125.38 217.114C1126.29 217.636 1127 218.39 1127.5 219.375C1128 220.352 1128.25 221.523 1128.25 222.886V234H1123.41V223.75C1123.41 222.674 1123.14 221.837 1122.59 221.239C1122.04 220.64 1121.28 220.341 1120.29 220.341C1119.63 220.341 1119.05 220.481 1118.54 220.761C1118.04 221.042 1117.65 221.451 1117.36 221.989C1117.08 222.519 1116.94 223.159 1116.93 223.909ZM1137.03 234.33C1135.92 234.33 1134.93 234.136 1134.06 233.75C1133.19 233.356 1132.5 232.777 1131.99 232.011C1131.49 231.239 1131.24 230.277 1131.24 229.125C1131.24 228.155 1131.42 227.341 1131.77 226.682C1132.13 226.023 1132.61 225.492 1133.23 225.091C1133.84 224.689 1134.54 224.386 1135.32 224.182C1136.11 223.977 1136.93 223.833 1137.8 223.75C1138.81 223.644 1139.63 223.545 1140.25 223.455C1140.87 223.356 1141.32 223.212 1141.6 223.023C1141.88 222.833 1142.02 222.553 1142.02 222.182V222.114C1142.02 221.394 1141.8 220.837 1141.34 220.443C1140.89 220.049 1140.26 219.852 1139.43 219.852C1138.56 219.852 1137.87 220.045 1137.35 220.432C1136.84 220.811 1136.5 221.288 1136.33 221.864L1131.85 221.5C1132.08 220.439 1132.53 219.523 1133.19 218.75C1133.86 217.97 1134.72 217.371 1135.77 216.955C1136.83 216.53 1138.06 216.318 1139.45 216.318C1140.42 216.318 1141.35 216.432 1142.24 216.659C1143.13 216.886 1143.92 217.239 1144.61 217.716C1145.31 218.193 1145.86 218.807 1146.26 219.557C1146.66 220.299 1146.86 221.189 1146.86 222.227V234H1142.27V231.58H1142.14C1141.86 232.125 1141.48 232.606 1141.01 233.023C1140.54 233.432 1139.98 233.754 1139.32 233.989C1138.66 234.216 1137.9 234.33 1137.03 234.33ZM1138.42 230.989C1139.13 230.989 1139.76 230.848 1140.31 230.568C1140.85 230.28 1141.28 229.894 1141.59 229.409C1141.9 228.924 1142.06 228.375 1142.06 227.761V225.909C1141.91 226.008 1141.7 226.098 1141.43 226.182C1141.17 226.258 1140.88 226.33 1140.56 226.398C1140.23 226.458 1139.91 226.515 1139.58 226.568C1139.25 226.614 1138.96 226.655 1138.69 226.693C1138.13 226.777 1137.63 226.909 1137.2 227.091C1136.78 227.273 1136.45 227.519 1136.22 227.83C1135.98 228.133 1135.86 228.511 1135.86 228.966C1135.86 229.625 1136.1 230.129 1136.58 230.477C1137.06 230.818 1137.68 230.989 1138.42 230.989ZM1150.71 234V210.727H1155.55V219.477H1155.7C1155.91 219.008 1156.22 218.53 1156.62 218.045C1157.03 217.553 1157.56 217.144 1158.21 216.818C1158.87 216.485 1159.69 216.318 1160.66 216.318C1161.94 216.318 1163.11 216.652 1164.19 217.318C1165.26 217.977 1166.12 218.973 1166.77 220.307C1167.41 221.633 1167.73 223.295 1167.73 225.295C1167.73 227.242 1167.42 228.886 1166.79 230.227C1166.17 231.561 1165.32 232.572 1164.24 233.261C1163.18 233.943 1161.98 234.284 1160.65 234.284C1159.71 234.284 1158.91 234.129 1158.26 233.818C1157.6 233.508 1157.07 233.117 1156.65 232.648C1156.24 232.17 1155.92 231.689 1155.7 231.205H1155.48V234H1150.71ZM1155.45 225.273C1155.45 226.311 1155.59 227.216 1155.88 227.989C1156.17 228.761 1156.59 229.364 1157.13 229.795C1157.68 230.22 1158.34 230.432 1159.12 230.432C1159.91 230.432 1160.57 230.216 1161.12 229.784C1161.66 229.345 1162.08 228.739 1162.36 227.966C1162.65 227.186 1162.79 226.288 1162.79 225.273C1162.79 224.265 1162.65 223.379 1162.37 222.614C1162.09 221.848 1161.68 221.25 1161.13 220.818C1160.59 220.386 1159.91 220.17 1159.12 220.17C1158.33 220.17 1157.66 220.379 1157.12 220.795C1156.58 221.212 1156.17 221.803 1155.88 222.568C1155.59 223.333 1155.45 224.235 1155.45 225.273Z" fill="#C5C5EE"/>
<rect x="197" y="192" width="360" height="73" rx="36.5" fill="url(#paint8_linear_1913_41)" stroke="#C5C5EE" stroke-width="4"/>
<path d="M235.818 239.341C234.03 239.341 232.492 238.962 231.205 238.205C229.924 237.439 228.939 236.379 228.25 235.023C227.568 233.667 227.227 232.106 227.227 230.341C227.227 228.553 227.572 226.985 228.261 225.636C228.958 224.28 229.947 223.223 231.227 222.466C232.508 221.701 234.03 221.318 235.795 221.318C237.318 221.318 238.652 221.595 239.795 222.148C240.939 222.701 241.845 223.477 242.511 224.477C243.178 225.477 243.545 226.652 243.614 228H239.045C238.917 227.129 238.576 226.428 238.023 225.898C237.477 225.36 236.761 225.091 235.875 225.091C235.125 225.091 234.47 225.295 233.909 225.705C233.356 226.106 232.924 226.693 232.614 227.466C232.303 228.239 232.148 229.174 232.148 230.273C232.148 231.386 232.299 232.333 232.602 233.114C232.913 233.894 233.348 234.489 233.909 234.898C234.47 235.307 235.125 235.511 235.875 235.511C236.428 235.511 236.924 235.398 237.364 235.17C237.811 234.943 238.178 234.614 238.466 234.182C238.761 233.742 238.955 233.216 239.045 232.602H243.614C243.538 233.936 243.174 235.11 242.523 236.125C241.879 237.133 240.989 237.92 239.852 238.489C238.716 239.057 237.371 239.341 235.818 239.341ZM254.599 239.341C252.834 239.341 251.308 238.966 250.02 238.216C248.74 237.458 247.751 236.405 247.054 235.057C246.357 233.701 246.009 232.129 246.009 230.341C246.009 228.538 246.357 226.962 247.054 225.614C247.751 224.258 248.74 223.205 250.02 222.455C251.308 221.697 252.834 221.318 254.599 221.318C256.365 221.318 257.887 221.697 259.168 222.455C260.455 223.205 261.448 224.258 262.145 225.614C262.842 226.962 263.19 228.538 263.19 230.341C263.19 232.129 262.842 233.701 262.145 235.057C261.448 236.405 260.455 237.458 259.168 238.216C257.887 238.966 256.365 239.341 254.599 239.341ZM254.622 235.591C255.425 235.591 256.096 235.364 256.634 234.909C257.171 234.447 257.577 233.818 257.849 233.023C258.13 232.227 258.27 231.322 258.27 230.307C258.27 229.292 258.13 228.386 257.849 227.591C257.577 226.795 257.171 226.167 256.634 225.705C256.096 225.242 255.425 225.011 254.622 225.011C253.812 225.011 253.13 225.242 252.577 225.705C252.031 226.167 251.618 226.795 251.338 227.591C251.065 228.386 250.929 229.292 250.929 230.307C250.929 231.322 251.065 232.227 251.338 233.023C251.618 233.818 252.031 234.447 252.577 234.909C253.13 235.364 253.812 235.591 254.622 235.591ZM266.338 239V221.545H270.952V224.625H271.156C271.52 223.602 272.126 222.795 272.974 222.205C273.823 221.614 274.838 221.318 276.02 221.318C277.217 221.318 278.236 221.617 279.077 222.216C279.918 222.807 280.478 223.61 280.759 224.625H280.94C281.296 223.625 281.94 222.826 282.872 222.227C283.812 221.621 284.921 221.318 286.202 221.318C287.83 221.318 289.152 221.837 290.168 222.875C291.19 223.905 291.702 225.367 291.702 227.261V239H286.872V228.216C286.872 227.246 286.615 226.519 286.099 226.034C285.584 225.549 284.94 225.307 284.168 225.307C283.289 225.307 282.603 225.587 282.111 226.148C281.618 226.701 281.372 227.432 281.372 228.341V239H276.679V228.114C276.679 227.258 276.433 226.576 275.94 226.068C275.455 225.561 274.815 225.307 274.02 225.307C273.482 225.307 272.997 225.443 272.565 225.716C272.141 225.981 271.804 226.356 271.554 226.841C271.304 227.318 271.179 227.879 271.179 228.523V239H266.338ZM295.526 239V221.545H300.139V224.625H300.344C300.707 223.602 301.313 222.795 302.162 222.205C303.01 221.614 304.026 221.318 305.207 221.318C306.404 221.318 307.423 221.617 308.264 222.216C309.105 222.807 309.666 223.61 309.946 224.625H310.128C310.484 223.625 311.128 222.826 312.06 222.227C312.999 221.621 314.109 221.318 315.389 221.318C317.018 221.318 318.34 221.837 319.355 222.875C320.378 223.905 320.889 225.367 320.889 227.261V239H316.06V228.216C316.06 227.246 315.802 226.519 315.287 226.034C314.772 225.549 314.128 225.307 313.355 225.307C312.476 225.307 311.791 225.587 311.298 226.148C310.806 226.701 310.56 227.432 310.56 228.341V239H305.866V228.114C305.866 227.258 305.62 226.576 305.128 226.068C304.643 225.561 304.003 225.307 303.207 225.307C302.67 225.307 302.185 225.443 301.753 225.716C301.329 225.981 300.991 226.356 300.741 226.841C300.491 227.318 300.366 227.879 300.366 228.523V239H295.526ZM335.906 231.568V221.545H340.747V239H336.099V235.83H335.918C335.524 236.852 334.868 237.674 333.952 238.295C333.043 238.917 331.933 239.227 330.622 239.227C329.455 239.227 328.429 238.962 327.543 238.432C326.656 237.902 325.963 237.148 325.463 236.17C324.971 235.193 324.721 234.023 324.713 232.659V221.545H329.554V231.795C329.562 232.826 329.838 233.64 330.384 234.239C330.929 234.837 331.66 235.136 332.577 235.136C333.16 235.136 333.705 235.004 334.213 234.739C334.721 234.466 335.13 234.064 335.44 233.534C335.759 233.004 335.914 232.348 335.906 231.568ZM349.46 228.909V239H344.619V221.545H349.233V224.625H349.438C349.824 223.61 350.472 222.807 351.381 222.216C352.29 221.617 353.392 221.318 354.688 221.318C355.9 221.318 356.956 221.583 357.858 222.114C358.759 222.644 359.46 223.402 359.96 224.386C360.46 225.364 360.71 226.53 360.71 227.886V239H355.869V228.75C355.877 227.682 355.604 226.848 355.051 226.25C354.498 225.644 353.737 225.341 352.767 225.341C352.116 225.341 351.54 225.481 351.04 225.761C350.547 226.042 350.161 226.451 349.881 226.989C349.608 227.519 349.468 228.159 349.46 228.909ZM364.526 239V221.545H369.366V239H364.526ZM366.957 219.295C366.238 219.295 365.62 219.057 365.105 218.58C364.598 218.095 364.344 217.515 364.344 216.841C364.344 216.174 364.598 215.602 365.105 215.125C365.62 214.64 366.238 214.398 366.957 214.398C367.677 214.398 368.291 214.64 368.798 215.125C369.313 215.602 369.571 216.174 369.571 216.841C369.571 217.515 369.313 218.095 368.798 218.58C368.291 219.057 367.677 219.295 366.957 219.295ZM382.528 221.545V225.182H372.017V221.545H382.528ZM374.403 217.364H379.244V233.636C379.244 234.083 379.313 234.432 379.449 234.682C379.585 234.924 379.775 235.095 380.017 235.193C380.267 235.292 380.555 235.341 380.881 235.341C381.108 235.341 381.335 235.322 381.562 235.284C381.79 235.239 381.964 235.205 382.085 235.182L382.847 238.784C382.604 238.86 382.263 238.947 381.824 239.045C381.384 239.152 380.85 239.216 380.222 239.239C379.055 239.284 378.032 239.129 377.153 238.773C376.282 238.417 375.604 237.864 375.119 237.114C374.634 236.364 374.396 235.417 374.403 234.273V217.364ZM388.67 245.545C388.057 245.545 387.481 245.496 386.943 245.398C386.413 245.307 385.973 245.189 385.625 245.045L386.716 241.432C387.284 241.606 387.795 241.701 388.25 241.716C388.712 241.731 389.11 241.625 389.443 241.398C389.784 241.17 390.061 240.784 390.273 240.239L390.557 239.5L384.295 221.545H389.386L393 234.364H393.182L396.83 221.545H401.955L395.17 240.886C394.845 241.826 394.402 242.644 393.841 243.341C393.288 244.045 392.587 244.587 391.739 244.966C390.89 245.352 389.867 245.545 388.67 245.545ZM416.679 215.727V239H411.838V215.727H416.679ZM428.511 239.341C426.716 239.341 425.17 238.977 423.875 238.25C422.587 237.515 421.595 236.477 420.898 235.136C420.201 233.788 419.852 232.193 419.852 230.352C419.852 228.557 420.201 226.981 420.898 225.625C421.595 224.269 422.576 223.212 423.841 222.455C425.114 221.697 426.606 221.318 428.318 221.318C429.47 221.318 430.542 221.504 431.534 221.875C432.534 222.239 433.405 222.788 434.148 223.523C434.898 224.258 435.481 225.182 435.898 226.295C436.314 227.402 436.523 228.697 436.523 230.182V231.511H421.784V228.511H431.966C431.966 227.814 431.814 227.197 431.511 226.659C431.208 226.121 430.788 225.701 430.25 225.398C429.72 225.087 429.102 224.932 428.398 224.932C427.663 224.932 427.011 225.102 426.443 225.443C425.883 225.777 425.443 226.227 425.125 226.795C424.807 227.356 424.644 227.981 424.636 228.67V231.523C424.636 232.386 424.795 233.133 425.114 233.761C425.439 234.39 425.898 234.875 426.489 235.216C427.08 235.557 427.78 235.727 428.591 235.727C429.129 235.727 429.621 235.652 430.068 235.5C430.515 235.348 430.898 235.121 431.216 234.818C431.534 234.515 431.777 234.144 431.943 233.705L436.42 234C436.193 235.076 435.727 236.015 435.023 236.818C434.326 237.614 433.424 238.235 432.318 238.682C431.22 239.121 429.951 239.341 428.511 239.341ZM444.523 228.909V239H439.682V221.545H444.295V224.625H444.5C444.886 223.61 445.534 222.807 446.443 222.216C447.352 221.617 448.455 221.318 449.75 221.318C450.962 221.318 452.019 221.583 452.92 222.114C453.822 222.644 454.523 223.402 455.023 224.386C455.523 225.364 455.773 226.53 455.773 227.886V239H450.932V228.75C450.939 227.682 450.667 226.848 450.114 226.25C449.561 225.644 448.799 225.341 447.83 225.341C447.178 225.341 446.602 225.481 446.102 225.761C445.61 226.042 445.223 226.451 444.943 226.989C444.67 227.519 444.53 228.159 444.523 228.909ZM466.02 239.284C464.694 239.284 463.493 238.943 462.418 238.261C461.349 237.572 460.501 236.561 459.872 235.227C459.251 233.886 458.94 232.242 458.94 230.295C458.94 228.295 459.262 226.633 459.906 225.307C460.55 223.973 461.406 222.977 462.474 222.318C463.55 221.652 464.728 221.318 466.009 221.318C466.986 221.318 467.8 221.485 468.452 221.818C469.111 222.144 469.641 222.553 470.043 223.045C470.452 223.53 470.762 224.008 470.974 224.477H471.122V215.727H475.952V239H471.179V236.205H470.974C470.747 236.689 470.425 237.17 470.009 237.648C469.599 238.117 469.065 238.508 468.406 238.818C467.755 239.129 466.959 239.284 466.02 239.284ZM467.554 235.432C468.334 235.432 468.993 235.22 469.531 234.795C470.077 234.364 470.493 233.761 470.781 232.989C471.077 232.216 471.224 231.311 471.224 230.273C471.224 229.235 471.08 228.333 470.793 227.568C470.505 226.803 470.088 226.212 469.543 225.795C468.997 225.379 468.334 225.17 467.554 225.17C466.759 225.17 466.088 225.386 465.543 225.818C464.997 226.25 464.584 226.848 464.304 227.614C464.024 228.379 463.884 229.265 463.884 230.273C463.884 231.288 464.024 232.186 464.304 232.966C464.592 233.739 465.005 234.345 465.543 234.784C466.088 235.216 466.759 235.432 467.554 235.432ZM479.932 239V221.545H484.773V239H479.932ZM482.364 219.295C481.644 219.295 481.027 219.057 480.511 218.58C480.004 218.095 479.75 217.515 479.75 216.841C479.75 216.174 480.004 215.602 480.511 215.125C481.027 214.64 481.644 214.398 482.364 214.398C483.083 214.398 483.697 214.64 484.205 215.125C484.72 215.602 484.977 216.174 484.977 216.841C484.977 217.515 484.72 218.095 484.205 218.58C483.697 219.057 483.083 219.295 482.364 219.295ZM493.491 228.909V239H488.651V221.545H493.264V224.625H493.469C493.855 223.61 494.503 222.807 495.412 222.216C496.321 221.617 497.423 221.318 498.719 221.318C499.931 221.318 500.988 221.583 501.889 222.114C502.791 222.644 503.491 223.402 503.991 224.386C504.491 225.364 504.741 226.53 504.741 227.886V239H499.901V228.75C499.908 227.682 499.635 226.848 499.082 226.25C498.529 225.644 497.768 225.341 496.798 225.341C496.147 225.341 495.571 225.481 495.071 225.761C494.579 226.042 494.192 226.451 493.912 226.989C493.639 227.519 493.499 228.159 493.491 228.909ZM516.42 245.909C514.852 245.909 513.508 245.693 512.386 245.261C511.273 244.837 510.386 244.258 509.727 243.523C509.068 242.788 508.64 241.962 508.443 241.045L512.92 240.443C513.057 240.792 513.273 241.117 513.568 241.42C513.864 241.723 514.254 241.966 514.739 242.148C515.231 242.337 515.83 242.432 516.534 242.432C517.587 242.432 518.455 242.174 519.136 241.659C519.826 241.152 520.17 240.299 520.17 239.102V235.909H519.966C519.754 236.394 519.436 236.852 519.011 237.284C518.587 237.716 518.042 238.068 517.375 238.341C516.708 238.614 515.913 238.75 514.989 238.75C513.678 238.75 512.485 238.447 511.409 237.841C510.341 237.227 509.489 236.292 508.852 235.034C508.223 233.769 507.909 232.17 507.909 230.239C507.909 228.261 508.231 226.61 508.875 225.284C509.519 223.958 510.375 222.966 511.443 222.307C512.519 221.648 513.697 221.318 514.977 221.318C515.955 221.318 516.773 221.485 517.432 221.818C518.091 222.144 518.621 222.553 519.023 223.045C519.432 223.53 519.746 224.008 519.966 224.477H520.148V221.545H524.955V239.17C524.955 240.655 524.591 241.898 523.864 242.898C523.136 243.898 522.129 244.648 520.841 245.148C519.561 245.655 518.087 245.909 516.42 245.909ZM516.523 235.114C517.303 235.114 517.962 234.92 518.5 234.534C519.045 234.14 519.462 233.58 519.75 232.852C520.045 232.117 520.193 231.239 520.193 230.216C520.193 229.193 520.049 228.307 519.761 227.557C519.473 226.799 519.057 226.212 518.511 225.795C517.966 225.379 517.303 225.17 516.523 225.17C515.727 225.17 515.057 225.386 514.511 225.818C513.966 226.242 513.553 226.833 513.273 227.591C512.992 228.348 512.852 229.223 512.852 230.216C512.852 231.223 512.992 232.095 513.273 232.83C513.561 233.557 513.973 234.121 514.511 234.523C515.057 234.917 515.727 235.114 516.523 235.114Z" fill="#C5C5EE"/>
<rect x="602" y="60" width="371" height="73" rx="36.5" fill="url(#paint9_linear_1913_41)" stroke="#9797E0" stroke-width="4"/>
<path d="M632.932 106V88.5455H637.545V91.625H637.75C638.114 90.6023 638.72 89.7955 639.568 89.2045C640.417 88.6136 641.432 88.3182 642.614 88.3182C643.811 88.3182 644.83 88.6174 645.67 89.2159C646.511 89.8068 647.072 90.6098 647.352 91.625H647.534C647.89 90.625 648.534 89.8258 649.466 89.2273C650.405 88.6212 651.515 88.3182 652.795 88.3182C654.424 88.3182 655.746 88.8371 656.761 89.875C657.784 90.9053 658.295 92.3674 658.295 94.2614V106H653.466V95.2159C653.466 94.2462 653.208 93.5189 652.693 93.0341C652.178 92.5492 651.534 92.3068 650.761 92.3068C649.883 92.3068 649.197 92.5871 648.705 93.1477C648.212 93.7008 647.966 94.4318 647.966 95.3409V106H643.273V95.1136C643.273 94.2576 643.027 93.5758 642.534 93.0682C642.049 92.5606 641.409 92.3068 640.614 92.3068C640.076 92.3068 639.591 92.4432 639.159 92.7159C638.735 92.9811 638.398 93.3561 638.148 93.8409C637.898 94.3182 637.773 94.8788 637.773 95.5227V106H632.932ZM673.312 98.5682V88.5455H678.153V106H673.506V102.83H673.324C672.93 103.852 672.275 104.674 671.358 105.295C670.449 105.917 669.339 106.227 668.028 106.227C666.862 106.227 665.835 105.962 664.949 105.432C664.063 104.902 663.369 104.148 662.869 103.17C662.377 102.193 662.127 101.023 662.119 99.6591V88.5455H666.96V98.7955C666.968 99.8258 667.244 100.64 667.79 101.239C668.335 101.837 669.066 102.136 669.983 102.136C670.566 102.136 671.112 102.004 671.619 101.739C672.127 101.466 672.536 101.064 672.847 100.534C673.165 100.004 673.32 99.3485 673.312 98.5682ZM686.866 82.7273V106H682.026V82.7273H686.866ZM700.028 88.5455V92.1818H689.517V88.5455H700.028ZM691.903 84.3636H696.744V100.636C696.744 101.083 696.813 101.432 696.949 101.682C697.085 101.924 697.275 102.095 697.517 102.193C697.767 102.292 698.055 102.341 698.381 102.341C698.608 102.341 698.835 102.322 699.062 102.284C699.29 102.239 699.464 102.205 699.585 102.182L700.347 105.784C700.104 105.86 699.763 105.947 699.324 106.045C698.884 106.152 698.35 106.216 697.722 106.239C696.555 106.284 695.532 106.129 694.653 105.773C693.782 105.417 693.104 104.864 692.619 104.114C692.134 103.364 691.896 102.417 691.903 101.273V84.3636ZM703.182 106V88.5455H708.023V106H703.182ZM705.614 86.2955C704.894 86.2955 704.277 86.0568 703.761 85.5795C703.254 85.0947 703 84.5152 703 83.8409C703 83.1742 703.254 82.6023 703.761 82.125C704.277 81.6402 704.894 81.3977 705.614 81.3977C706.333 81.3977 706.947 81.6402 707.455 82.125C707.97 82.6023 708.227 83.1742 708.227 83.8409C708.227 84.5152 707.97 85.0947 707.455 85.5795C706.947 86.0568 706.333 86.2955 705.614 86.2955ZM721.287 88.5455V92.1818H710.514V88.5455H721.287ZM712.98 106V87.2841C712.98 86.0189 713.226 84.9697 713.719 84.1364C714.219 83.303 714.901 82.678 715.764 82.2614C716.628 81.8447 717.609 81.6364 718.707 81.6364C719.45 81.6364 720.128 81.6932 720.741 81.8068C721.363 81.9205 721.825 82.0227 722.128 82.1136L721.264 85.75C721.075 85.6894 720.84 85.6326 720.56 85.5795C720.287 85.5265 720.007 85.5 719.719 85.5C719.007 85.5 718.51 85.6667 718.23 86C717.95 86.3258 717.81 86.7841 717.81 87.375V106H712.98ZM728.597 106.33C727.483 106.33 726.491 106.136 725.619 105.75C724.748 105.356 724.059 104.777 723.551 104.011C723.051 103.239 722.801 102.277 722.801 101.125C722.801 100.155 722.979 99.3409 723.335 98.6818C723.691 98.0227 724.176 97.4924 724.79 97.0909C725.403 96.6894 726.1 96.3864 726.881 96.1818C727.669 95.9773 728.494 95.8333 729.358 95.75C730.373 95.6439 731.191 95.5455 731.812 95.4545C732.434 95.3561 732.884 95.2121 733.165 95.0227C733.445 94.8333 733.585 94.553 733.585 94.1818V94.1136C733.585 93.3939 733.358 92.8371 732.903 92.4432C732.456 92.0492 731.82 91.8523 730.994 91.8523C730.123 91.8523 729.43 92.0455 728.915 92.4318C728.4 92.8106 728.059 93.2879 727.892 93.8636L723.415 93.5C723.642 92.4394 724.089 91.5227 724.756 90.75C725.422 89.9697 726.282 89.3712 727.335 88.9545C728.396 88.5303 729.623 88.3182 731.017 88.3182C731.987 88.3182 732.915 88.4318 733.801 88.6591C734.695 88.8864 735.487 89.2386 736.176 89.7159C736.873 90.1932 737.422 90.8068 737.824 91.5568C738.225 92.2992 738.426 93.1894 738.426 94.2273V106H733.835V103.58H733.699C733.419 104.125 733.044 104.606 732.574 105.023C732.104 105.432 731.54 105.754 730.881 105.989C730.222 106.216 729.46 106.33 728.597 106.33ZM729.983 102.989C730.695 102.989 731.324 102.848 731.869 102.568C732.415 102.28 732.843 101.894 733.153 101.409C733.464 100.924 733.619 100.375 733.619 99.7614V97.9091C733.468 98.0076 733.259 98.0985 732.994 98.1818C732.737 98.2576 732.445 98.3295 732.119 98.3977C731.794 98.4583 731.468 98.5152 731.142 98.5682C730.816 98.6136 730.521 98.6553 730.256 98.6932C729.688 98.7765 729.191 98.9091 728.767 99.0909C728.343 99.2727 728.013 99.5189 727.778 99.8295C727.544 100.133 727.426 100.511 727.426 100.966C727.426 101.625 727.665 102.129 728.142 102.477C728.627 102.818 729.241 102.989 729.983 102.989ZM742.182 106V88.5455H746.795V91.625H747C747.364 90.6023 747.97 89.7955 748.818 89.2045C749.667 88.6136 750.682 88.3182 751.864 88.3182C753.061 88.3182 754.08 88.6174 754.92 89.2159C755.761 89.8068 756.322 90.6098 756.602 91.625H756.784C757.14 90.625 757.784 89.8258 758.716 89.2273C759.655 88.6212 760.765 88.3182 762.045 88.3182C763.674 88.3182 764.996 88.8371 766.011 89.875C767.034 90.9053 767.545 92.3674 767.545 94.2614V106H762.716V95.2159C762.716 94.2462 762.458 93.5189 761.943 93.0341C761.428 92.5492 760.784 92.3068 760.011 92.3068C759.133 92.3068 758.447 92.5871 757.955 93.1477C757.462 93.7008 757.216 94.4318 757.216 95.3409V106H752.523V95.1136C752.523 94.2576 752.277 93.5758 751.784 93.0682C751.299 92.5606 750.659 92.3068 749.864 92.3068C749.326 92.3068 748.841 92.4432 748.409 92.7159C747.985 92.9811 747.648 93.3561 747.398 93.8409C747.148 94.3182 747.023 94.8788 747.023 95.5227V106H742.182ZM771.369 106V88.5455H776.21V106H771.369ZM773.801 86.2955C773.081 86.2955 772.464 86.0568 771.949 85.5795C771.441 85.0947 771.188 84.5152 771.188 83.8409C771.188 83.1742 771.441 82.6023 771.949 82.125C772.464 81.6402 773.081 81.3977 773.801 81.3977C774.521 81.3977 775.134 81.6402 775.642 82.125C776.157 82.6023 776.415 83.1742 776.415 83.8409C776.415 84.5152 776.157 85.0947 775.642 85.5795C775.134 86.0568 774.521 86.2955 773.801 86.2955ZM784.929 82.7273V106H780.088V82.7273H784.929ZM791.795 112.545C791.182 112.545 790.606 112.496 790.068 112.398C789.538 112.307 789.098 112.189 788.75 112.045L789.841 108.432C790.409 108.606 790.92 108.701 791.375 108.716C791.837 108.731 792.235 108.625 792.568 108.398C792.909 108.17 793.186 107.784 793.398 107.239L793.682 106.5L787.42 88.5455H792.511L796.125 101.364H796.307L799.955 88.5455H805.08L798.295 107.886C797.97 108.826 797.527 109.644 796.966 110.341C796.413 111.045 795.712 111.587 794.864 111.966C794.015 112.352 792.992 112.545 791.795 112.545ZM819.804 95.9091V106H814.963V82.7273H819.668V91.625H819.872C820.266 90.5947 820.902 89.7879 821.781 89.2045C822.66 88.6136 823.762 88.3182 825.088 88.3182C826.3 88.3182 827.357 88.5833 828.259 89.1136C829.168 89.6364 829.872 90.3902 830.372 91.375C830.88 92.3523 831.13 93.5227 831.122 94.8864V106H826.281V95.75C826.289 94.6742 826.016 93.8371 825.463 93.2386C824.918 92.6402 824.152 92.3409 823.168 92.3409C822.509 92.3409 821.925 92.4811 821.418 92.7614C820.918 93.0417 820.524 93.4508 820.236 93.9886C819.955 94.5189 819.812 95.1591 819.804 95.9091ZM842.818 106.341C841.053 106.341 839.527 105.966 838.239 105.216C836.958 104.458 835.97 103.405 835.273 102.057C834.576 100.701 834.227 99.1288 834.227 97.3409C834.227 95.5379 834.576 93.9621 835.273 92.6136C835.97 91.2576 836.958 90.2045 838.239 89.4545C839.527 88.697 841.053 88.3182 842.818 88.3182C844.583 88.3182 846.106 88.697 847.386 89.4545C848.674 90.2045 849.667 91.2576 850.364 92.6136C851.061 93.9621 851.409 95.5379 851.409 97.3409C851.409 99.1288 851.061 100.701 850.364 102.057C849.667 103.405 848.674 104.458 847.386 105.216C846.106 105.966 844.583 106.341 842.818 106.341ZM842.841 102.591C843.644 102.591 844.314 102.364 844.852 101.909C845.39 101.447 845.795 100.818 846.068 100.023C846.348 99.2273 846.489 98.322 846.489 97.3068C846.489 96.2917 846.348 95.3864 846.068 94.5909C845.795 93.7955 845.39 93.1667 844.852 92.7045C844.314 92.2424 843.644 92.0114 842.841 92.0114C842.03 92.0114 841.348 92.2424 840.795 92.7045C840.25 93.1667 839.837 93.7955 839.557 94.5909C839.284 95.3864 839.148 96.2917 839.148 97.3068C839.148 98.322 839.284 99.2273 839.557 100.023C839.837 100.818 840.25 101.447 840.795 101.909C841.348 102.364 842.03 102.591 842.841 102.591ZM865.75 98.5682V88.5455H870.591V106H865.943V102.83H865.761C865.367 103.852 864.712 104.674 863.795 105.295C862.886 105.917 861.777 106.227 860.466 106.227C859.299 106.227 858.273 105.962 857.386 105.432C856.5 104.902 855.807 104.148 855.307 103.17C854.814 102.193 854.564 101.023 854.557 99.6591V88.5455H859.398V98.7955C859.405 99.8258 859.682 100.64 860.227 101.239C860.773 101.837 861.504 102.136 862.42 102.136C863.004 102.136 863.549 102.004 864.057 101.739C864.564 101.466 864.973 101.064 865.284 100.534C865.602 100.004 865.758 99.3485 865.75 98.5682ZM888.986 93.5227L884.554 93.7955C884.478 93.4167 884.315 93.0758 884.065 92.7727C883.815 92.4621 883.486 92.2159 883.077 92.0341C882.675 91.8447 882.194 91.75 881.634 91.75C880.884 91.75 880.251 91.9091 879.736 92.2273C879.221 92.5379 878.963 92.9545 878.963 93.4773C878.963 93.8939 879.13 94.2462 879.463 94.5341C879.796 94.822 880.368 95.053 881.179 95.2273L884.338 95.8636C886.035 96.2121 887.3 96.7727 888.134 97.5455C888.967 98.3182 889.384 99.3333 889.384 100.591C889.384 101.735 889.046 102.739 888.372 103.602C887.705 104.466 886.789 105.14 885.622 105.625C884.463 106.102 883.126 106.341 881.611 106.341C879.3 106.341 877.459 105.86 876.088 104.898C874.724 103.928 873.925 102.61 873.69 100.943L878.452 100.693C878.596 101.398 878.944 101.936 879.497 102.307C880.05 102.67 880.759 102.852 881.622 102.852C882.471 102.852 883.152 102.689 883.668 102.364C884.19 102.03 884.455 101.602 884.463 101.08C884.455 100.64 884.27 100.28 883.906 100C883.543 99.7121 882.982 99.4924 882.224 99.3409L879.202 98.7386C877.497 98.3977 876.228 97.8068 875.395 96.9659C874.569 96.125 874.156 95.053 874.156 93.75C874.156 92.6288 874.459 91.6629 875.065 90.8523C875.679 90.0417 876.539 89.4167 877.645 88.9773C878.759 88.5379 880.062 88.3182 881.554 88.3182C883.759 88.3182 885.493 88.7841 886.759 89.7159C888.031 90.6477 888.774 91.9167 888.986 93.5227ZM892.432 106V88.5455H897.273V106H892.432ZM894.864 86.2955C894.144 86.2955 893.527 86.0568 893.011 85.5795C892.504 85.0947 892.25 84.5152 892.25 83.8409C892.25 83.1742 892.504 82.6023 893.011 82.125C893.527 81.6402 894.144 81.3977 894.864 81.3977C895.583 81.3977 896.197 81.6402 896.705 82.125C897.22 82.6023 897.477 83.1742 897.477 83.8409C897.477 84.5152 897.22 85.0947 896.705 85.5795C896.197 86.0568 895.583 86.2955 894.864 86.2955ZM905.991 95.9091V106H901.151V88.5455H905.764V91.625H905.969C906.355 90.6098 907.003 89.8068 907.912 89.2159C908.821 88.6174 909.923 88.3182 911.219 88.3182C912.431 88.3182 913.488 88.5833 914.389 89.1136C915.291 89.6439 915.991 90.4015 916.491 91.3864C916.991 92.3636 917.241 93.5303 917.241 94.8864V106H912.401V95.75C912.408 94.6818 912.135 93.8485 911.582 93.25C911.029 92.6439 910.268 92.3409 909.298 92.3409C908.647 92.3409 908.071 92.4811 907.571 92.7614C907.079 93.0417 906.692 93.4508 906.412 93.9886C906.139 94.5189 905.999 95.1591 905.991 95.9091ZM928.92 112.909C927.352 112.909 926.008 112.693 924.886 112.261C923.773 111.837 922.886 111.258 922.227 110.523C921.568 109.788 921.14 108.962 920.943 108.045L925.42 107.443C925.557 107.792 925.773 108.117 926.068 108.42C926.364 108.723 926.754 108.966 927.239 109.148C927.731 109.337 928.33 109.432 929.034 109.432C930.087 109.432 930.955 109.174 931.636 108.659C932.326 108.152 932.67 107.299 932.67 106.102V102.909H932.466C932.254 103.394 931.936 103.852 931.511 104.284C931.087 104.716 930.542 105.068 929.875 105.341C929.208 105.614 928.413 105.75 927.489 105.75C926.178 105.75 924.985 105.447 923.909 104.841C922.841 104.227 921.989 103.292 921.352 102.034C920.723 100.769 920.409 99.1705 920.409 97.2386C920.409 95.2614 920.731 93.6098 921.375 92.2841C922.019 90.9583 922.875 89.9659 923.943 89.3068C925.019 88.6477 926.197 88.3182 927.477 88.3182C928.455 88.3182 929.273 88.4848 929.932 88.8182C930.591 89.1439 931.121 89.553 931.523 90.0455C931.932 90.5303 932.246 91.0076 932.466 91.4773H932.648V88.5455H937.455V106.17C937.455 107.655 937.091 108.898 936.364 109.898C935.636 110.898 934.629 111.648 933.341 112.148C932.061 112.655 930.587 112.909 928.92 112.909ZM929.023 102.114C929.803 102.114 930.462 101.92 931 101.534C931.545 101.14 931.962 100.58 932.25 99.8523C932.545 99.1174 932.693 98.2386 932.693 97.2159C932.693 96.1932 932.549 95.3068 932.261 94.5568C931.973 93.7992 931.557 93.2121 931.011 92.7955C930.466 92.3788 929.803 92.1705 929.023 92.1705C928.227 92.1705 927.557 92.3864 927.011 92.8182C926.466 93.2424 926.053 93.8333 925.773 94.5909C925.492 95.3485 925.352 96.2235 925.352 97.2159C925.352 98.2235 925.492 99.0947 925.773 99.8295C926.061 100.557 926.473 101.121 927.011 101.523C927.557 101.917 928.227 102.114 929.023 102.114Z" fill="#9797E0"/>
</g>
<defs>
<linearGradient id="paint0_linear_1913_41" x1="2614.5" y1="694.372" x2="2642.21" y2="279.753" gradientUnits="userSpaceOnUse">
<stop stop-color="white" stop-opacity="0"/>
<stop offset="1" stop-color="#F0F0FF"/>
</linearGradient>
<linearGradient id="paint1_linear_1913_41" x1="2614.5" y1="694.372" x2="2642.21" y2="279.753" gradientUnits="userSpaceOnUse">
<stop stop-color="white" stop-opacity="0"/>
<stop offset="1" stop-color="#F0F0FF"/>
</linearGradient>
<linearGradient id="paint2_linear_1913_41" x1="910" y1="202.693" x2="909.312" y2="-0.00445204" gradientUnits="userSpaceOnUse">
<stop stop-color="white" stop-opacity="0"/>
<stop offset="1" stop-color="white"/>
</linearGradient>
<linearGradient id="paint3_linear_1913_41" x1="994" y1="119.5" x2="1334" y2="119.5" gradientUnits="userSpaceOnUse">
<stop stop-color="#F2DFF5"/>
<stop offset="1" stop-color="white"/>
</linearGradient>
<linearGradient id="paint4_linear_1913_41" x1="1252" y1="217.5" x2="1414" y2="217.5" gradientUnits="userSpaceOnUse">
<stop stop-color="#F2DFF5"/>
<stop offset="1" stop-color="white"/>
</linearGradient>
<linearGradient id="paint5_linear_1913_41" x1="339" y1="116.5" x2="580" y2="116.5" gradientUnits="userSpaceOnUse">
<stop stop-color="white"/>
<stop offset="0.0001" stop-color="#E1E1FE"/>
<stop offset="1" stop-color="white"/>
</linearGradient>
<linearGradient id="paint6_linear_1913_41" x1="579" y1="210.5" x2="885" y2="210.5" gradientUnits="userSpaceOnUse">
<stop stop-color="#F2DFF5"/>
<stop offset="1" stop-color="white"/>
</linearGradient>
<linearGradient id="paint7_linear_1913_41" x1="914" y1="224.5" x2="1203" y2="224.5" gradientUnits="userSpaceOnUse">
<stop offset="0.0001" stop-color="#F1F1FF"/>
<stop offset="1" stop-color="white"/>
</linearGradient>
<linearGradient id="paint8_linear_1913_41" x1="195" y1="228.5" x2="559" y2="228.5" gradientUnits="userSpaceOnUse">
<stop offset="0.0001" stop-color="#F1F1FF"/>
<stop offset="1" stop-color="white"/>
</linearGradient>
<linearGradient id="paint9_linear_1913_41" x1="600" y1="96.5" x2="975" y2="96.5" gradientUnits="userSpaceOnUse">
<stop stop-color="white"/>
<stop offset="0.0001" stop-color="#E1E1FE"/>
<stop offset="1" stop-color="white"/>
</linearGradient>
<clipPath id="clip0_1913_41">
<rect width="1600" height="312" fill="white"/>
</clipPath>
</defs>
</svg>
